# xmcd
#
# Track frame offsets:
#	150
#	16542
#	31167
#	45470
#	59392
#	74967
#	85622
#	100162
#	113457
#	126457
#	140450
#	153970
#	164400
#	179425
#	191687
#	204952
#	215830
#	225000
#	237845
#	251862
#	266527
#	278150
#	290947
#	302087
#
# Disc length: 4234 seconds
#
# Revision: 1
# Processed by: cddbd v1.5.1PL0 Copyright (c) Steve Scherf et al.
# Submitted via: CDex 1.50Beta5
#
DISCID=56108818
DTITLE=ステップス - ウルトラダンス 4
DYEAR=1999
DGENRE=Pop
TTITLE0=ステップス/ホールド・オン・マイ・ハート
TTITLE1=ジャセイント/ドント・レット・ミー・ダウン
TTITLE2=ベンガボーイズ/ブン・ブン・ブン・ブン!!
TTITLE3=ラバーズ/リンガ・ディンガ・ドン
TTITLE4=ハンナ/バック・イン・ザ・タイム
TTITLE5=ソーダ/サターナイト
TTITLE6=GTS/シャイン・イン・マイ・ライフ
TTITLE7=ズーム/オール・ザ・ウェイ・トゥ・ヘブン
TTITLE8=スーガ/アイ・ライク・イット
TTITLE9=A.E./オール・アラウンド・ザ・ワールド
TTITLE10=アイ/イン・レイン・アンド・サンシャイン
TTITLE11=スーパーカー/コンピューター・ラブ
TTITLE12=ペイ・デイ/グッド・タイムス
TTITLE13=ボビー・サマー/ブリング・ユア・ラブ
TTITLE14=ネーム/ライフ・イズ・オールウェイズ・ワンダフル
TTITLE15=イーブス/イフ・ユー・ラブ
TTITLE16=アーバン・クッキー・コレクティブ/メルセデス・ベンツ
TTITLE17=モア/4エバー・ウィズ・ミー
TTITLE18=ヴィクトリア/リトゥン・イン・ザ・スターズ
TTITLE19=ロクサーヌ/マイ・ハーツ・ノット・ア・メールボックス
TTITLE20=キャプテン・コズモ/ファイナル・カウントダウン
TTITLE21=ミッション-X/アイム・ア・マン
TTITLE22=スティーブ・レイナー/シー・ザ・レインボー
TTITLE23=ネロー/デボーション
EXTD=
EXTT0=
EXTT1=
EXTT2=
EXTT3=
EXTT4=
EXTT5=
EXTT6=
EXTT7=
EXTT8=
EXTT9=
EXTT10=
EXTT11=
EXTT12=
EXTT13=
EXTT14=
EXTT15=
EXTT16=
EXTT17=
EXTT18=
EXTT19=
EXTT20=
EXTT21=
EXTT22=
EXTT23=
PLAYORDER=
